<svg width="389" height="389" viewBox="0 0 389 389" fill="none" xmlns="http://www.w3.org/2000/svg">
<path d="M143.877 285.043C141.961 289.038 140.845 293.157 140.845 297.397C140.845 316.82 161.802 334.13 194.5 345.405C227.198 334.13 248.155 316.82 248.155 297.397C248.155 293.294 247.1 289.304 245.302 285.43L194.497 258.215L143.877 285.043Z" fill="#734A91"/>
<path d="M291.75 217.974H97.25C57.904 217.974 22.8393 226.985 0 251.509C22.8393 276.031 57.904 291.75 97.25 291.75C136.596 291.75 171.661 282.738 194.5 258.215C217.339 282.738 252.404 291.75 291.75 291.75C331.096 291.75 366.161 276.031 389 251.508C366.161 226.985 331.097 217.974 291.75 217.974Z" fill="#A87BC7"/>
<path d="M194.5 43.5946C165.89 68.7968 147.552 107.488 147.552 150.905C147.552 161.231 148.619 171.278 150.586 180.952H238.415C240.382 171.278 241.448 161.232 241.448 150.905C241.448 107.489 223.111 68.7968 194.5 43.5946Z" fill="#E0B0FF"/>
<path d="M147.552 164.319C117.17 139.988 75.2084 123.53 40.263 124.096C39.5754 156.192 55.3322 190.849 86.5343 217.981C117.736 245.112 157.591 258.815 194.5 258.217" fill="#E0B0FF"/>
<path d="M194.5 258.217C231.409 258.815 271.264 245.113 302.466 217.981C333.667 190.849 349.424 156.193 348.737 124.096C314.271 123.538 271.607 140.646 241.448 164.318" fill="#E0B0FF"/>
<path d="M80.4987 164.333C79.9904 186.801 91.6368 211.062 114.699 230.056C137.761 249.05 167.219 258.642 194.5 258.224L154.259 191.147C131.803 174.113 106.328 163.936 80.4987 164.333Z" fill="#A87BC7"/>
<path d="M234.742 191.146L194.5 258.222C221.781 258.642 251.239 249.049 274.301 230.055C297.363 211.061 309.01 186.801 308.501 164.331C283.027 163.942 257.032 174.575 234.742 191.146Z" fill="#A87BC7"/>
<path d="M147.552 197.854C147.552 222.275 165.89 244.04 194.5 258.215C223.111 244.04 241.448 222.275 241.448 197.854C241.448 173.432 223.111 151.667 194.5 137.492C165.89 151.667 147.552 173.432 147.552 197.854Z" fill="#734A91"/>
</svg>
